<mxfile host="app.diagrams.net" agent="Mozilla/5.0 (Windows NT 10.0; Win64; x64) AppleWebKit/537.36 (KHTML, like Gecko) Chrome/127.0.0.0 Safari/537.36" version="24.7.7">
  <diagram name="第 1 页" id="ac2FDMPI02UOKJqty5Q4">
    <mxGraphModel dx="1221" dy="725" grid="1" gridSize="10" guides="1" tooltips="1" connect="1" arrows="1" fold="1" page="1" pageScale="1" pageWidth="827" pageHeight="1169" math="0" shadow="0">
      <root>
        <mxCell id="0" />
        <mxCell id="1" parent="0" />
        <mxCell id="yfsCvUjp1crIQvK7oD_y-1" value="军事标绘模块" style="rounded=1;whiteSpace=wrap;html=1;" vertex="1" parent="1">
          <mxGeometry x="354" y="120" width="120" height="60" as="geometry" />
        </mxCell>
        <mxCell id="yfsCvUjp1crIQvK7oD_y-2" style="edgeStyle=orthogonalEdgeStyle;rounded=0;orthogonalLoop=1;jettySize=auto;html=1;exitX=0.5;exitY=1;exitDx=0;exitDy=0;" edge="1" parent="1" source="yfsCvUjp1crIQvK7oD_y-6" target="yfsCvUjp1crIQvK7oD_y-8">
          <mxGeometry relative="1" as="geometry" />
        </mxCell>
        <mxCell id="yfsCvUjp1crIQvK7oD_y-3" value="" style="edgeStyle=orthogonalEdgeStyle;rounded=0;orthogonalLoop=1;jettySize=auto;html=1;endArrow=none;endFill=0;" edge="1" parent="1" source="yfsCvUjp1crIQvK7oD_y-6" target="yfsCvUjp1crIQvK7oD_y-1">
          <mxGeometry relative="1" as="geometry" />
        </mxCell>
        <mxCell id="yfsCvUjp1crIQvK7oD_y-4" style="edgeStyle=orthogonalEdgeStyle;rounded=0;orthogonalLoop=1;jettySize=auto;html=1;exitX=0.5;exitY=1;exitDx=0;exitDy=0;" edge="1" parent="1" source="yfsCvUjp1crIQvK7oD_y-6" target="yfsCvUjp1crIQvK7oD_y-10">
          <mxGeometry relative="1" as="geometry" />
        </mxCell>
        <mxCell id="yfsCvUjp1crIQvK7oD_y-5" style="edgeStyle=orthogonalEdgeStyle;rounded=0;orthogonalLoop=1;jettySize=auto;html=1;exitX=0.5;exitY=1;exitDx=0;exitDy=0;" edge="1" parent="1" source="yfsCvUjp1crIQvK7oD_y-6" target="yfsCvUjp1crIQvK7oD_y-12">
          <mxGeometry relative="1" as="geometry" />
        </mxCell>
        <mxCell id="yfsCvUjp1crIQvK7oD_y-6" value="军标库管理" style="rounded=1;whiteSpace=wrap;html=1;" vertex="1" parent="1">
          <mxGeometry x="354" y="210" width="120" height="60" as="geometry" />
        </mxCell>
        <mxCell id="yfsCvUjp1crIQvK7oD_y-7" style="edgeStyle=orthogonalEdgeStyle;rounded=0;orthogonalLoop=1;jettySize=auto;html=1;exitX=0.5;exitY=1;exitDx=0;exitDy=0;entryX=0.5;entryY=0;entryDx=0;entryDy=0;" edge="1" parent="1" source="yfsCvUjp1crIQvK7oD_y-8" target="yfsCvUjp1crIQvK7oD_y-14">
          <mxGeometry relative="1" as="geometry" />
        </mxCell>
        <mxCell id="yfsCvUjp1crIQvK7oD_y-8" value="军标版本分类管理" style="rounded=1;whiteSpace=wrap;html=1;" vertex="1" parent="1">
          <mxGeometry x="200" y="310" width="120" height="60" as="geometry" />
        </mxCell>
        <mxCell id="yfsCvUjp1crIQvK7oD_y-9" style="edgeStyle=orthogonalEdgeStyle;rounded=0;orthogonalLoop=1;jettySize=auto;html=1;exitX=0.5;exitY=1;exitDx=0;exitDy=0;" edge="1" parent="1" source="yfsCvUjp1crIQvK7oD_y-10" target="yfsCvUjp1crIQvK7oD_y-14">
          <mxGeometry relative="1" as="geometry" />
        </mxCell>
        <mxCell id="yfsCvUjp1crIQvK7oD_y-10" value="现有军事符号标准" style="rounded=1;whiteSpace=wrap;html=1;" vertex="1" parent="1">
          <mxGeometry x="354" y="310" width="120" height="60" as="geometry" />
        </mxCell>
        <mxCell id="yfsCvUjp1crIQvK7oD_y-11" style="edgeStyle=orthogonalEdgeStyle;rounded=0;orthogonalLoop=1;jettySize=auto;html=1;exitX=0.5;exitY=1;exitDx=0;exitDy=0;entryX=0.5;entryY=0;entryDx=0;entryDy=0;" edge="1" parent="1" source="yfsCvUjp1crIQvK7oD_y-12" target="yfsCvUjp1crIQvK7oD_y-14">
          <mxGeometry relative="1" as="geometry" />
        </mxCell>
        <mxCell id="yfsCvUjp1crIQvK7oD_y-12" value="军标信息编辑修改" style="rounded=1;whiteSpace=wrap;html=1;" vertex="1" parent="1">
          <mxGeometry x="500" y="310" width="120" height="60" as="geometry" />
        </mxCell>
        <mxCell id="yfsCvUjp1crIQvK7oD_y-13" style="edgeStyle=orthogonalEdgeStyle;rounded=0;orthogonalLoop=1;jettySize=auto;html=1;exitX=0.5;exitY=1;exitDx=0;exitDy=0;" edge="1" parent="1" source="yfsCvUjp1crIQvK7oD_y-14" target="yfsCvUjp1crIQvK7oD_y-16">
          <mxGeometry relative="1" as="geometry" />
        </mxCell>
        <mxCell id="yfsCvUjp1crIQvK7oD_y-14" value="军标符号选择" style="rounded=1;whiteSpace=wrap;html=1;" vertex="1" parent="1">
          <mxGeometry x="354" y="410" width="120" height="60" as="geometry" />
        </mxCell>
        <mxCell id="yfsCvUjp1crIQvK7oD_y-15" style="edgeStyle=orthogonalEdgeStyle;rounded=0;orthogonalLoop=1;jettySize=auto;html=1;exitX=0.5;exitY=1;exitDx=0;exitDy=0;entryX=0.5;entryY=0;entryDx=0;entryDy=0;" edge="1" parent="1" source="yfsCvUjp1crIQvK7oD_y-16" target="yfsCvUjp1crIQvK7oD_y-20">
          <mxGeometry relative="1" as="geometry" />
        </mxCell>
        <mxCell id="yfsCvUjp1crIQvK7oD_y-16" value="加载地图场景" style="rounded=1;whiteSpace=wrap;html=1;" vertex="1" parent="1">
          <mxGeometry x="354" y="510" width="120" height="60" as="geometry" />
        </mxCell>
        <mxCell id="yfsCvUjp1crIQvK7oD_y-19" style="edgeStyle=orthogonalEdgeStyle;rounded=0;orthogonalLoop=1;jettySize=auto;html=1;exitX=0.5;exitY=1;exitDx=0;exitDy=0;" edge="1" parent="1" source="yfsCvUjp1crIQvK7oD_y-20" target="yfsCvUjp1crIQvK7oD_y-21">
          <mxGeometry relative="1" as="geometry" />
        </mxCell>
        <mxCell id="yfsCvUjp1crIQvK7oD_y-20" value="军标符号定位放置" style="rounded=1;whiteSpace=wrap;html=1;" vertex="1" parent="1">
          <mxGeometry x="354" y="610" width="120" height="60" as="geometry" />
        </mxCell>
        <mxCell id="yfsCvUjp1crIQvK7oD_y-25" style="edgeStyle=orthogonalEdgeStyle;rounded=0;orthogonalLoop=1;jettySize=auto;html=1;exitX=1;exitY=0.5;exitDx=0;exitDy=0;entryX=0;entryY=0.5;entryDx=0;entryDy=0;endArrow=none;endFill=0;" edge="1" parent="1" source="yfsCvUjp1crIQvK7oD_y-21" target="yfsCvUjp1crIQvK7oD_y-22">
          <mxGeometry relative="1" as="geometry" />
        </mxCell>
        <mxCell id="yfsCvUjp1crIQvK7oD_y-27" style="edgeStyle=orthogonalEdgeStyle;rounded=0;orthogonalLoop=1;jettySize=auto;html=1;exitX=0.5;exitY=1;exitDx=0;exitDy=0;" edge="1" parent="1" source="yfsCvUjp1crIQvK7oD_y-21" target="yfsCvUjp1crIQvK7oD_y-26">
          <mxGeometry relative="1" as="geometry" />
        </mxCell>
        <mxCell id="yfsCvUjp1crIQvK7oD_y-21" value="军事标绘属性修改&lt;div&gt;二三维一体化视图&lt;/div&gt;" style="rounded=1;whiteSpace=wrap;html=1;" vertex="1" parent="1">
          <mxGeometry x="354" y="710" width="120" height="60" as="geometry" />
        </mxCell>
        <mxCell id="yfsCvUjp1crIQvK7oD_y-22" value="二维转换为三维" style="rounded=1;whiteSpace=wrap;html=1;" vertex="1" parent="1">
          <mxGeometry x="500" y="710" width="120" height="60" as="geometry" />
        </mxCell>
        <mxCell id="yfsCvUjp1crIQvK7oD_y-24" style="edgeStyle=orthogonalEdgeStyle;rounded=0;orthogonalLoop=1;jettySize=auto;html=1;exitX=1;exitY=0.5;exitDx=0;exitDy=0;endArrow=none;endFill=0;" edge="1" parent="1" source="yfsCvUjp1crIQvK7oD_y-23" target="yfsCvUjp1crIQvK7oD_y-21">
          <mxGeometry relative="1" as="geometry" />
        </mxCell>
        <mxCell id="yfsCvUjp1crIQvK7oD_y-23" value="三维转换为二维" style="rounded=1;whiteSpace=wrap;html=1;" vertex="1" parent="1">
          <mxGeometry x="200" y="710" width="120" height="60" as="geometry" />
        </mxCell>
        <mxCell id="yfsCvUjp1crIQvK7oD_y-26" value="军标信息保存输出" style="rounded=1;whiteSpace=wrap;html=1;" vertex="1" parent="1">
          <mxGeometry x="354" y="810" width="120" height="60" as="geometry" />
        </mxCell>
      </root>
    </mxGraphModel>
  </diagram>
</mxfile>
